<?xml version="1.0" encoding="utf-8"?>
<!-- Generator: Adobe Illustrator 24.3.0, SVG Export Plug-In . SVG Version: 6.00 Build 0)  -->
<svg version="1.1" id="Layer_1" xmlns="http://www.w3.org/2000/svg" xmlns:xlink="http://www.w3.org/1999/xlink" x="0px" y="0px"
	 viewBox="0 0 2000 1248.8" style="enable-background:new 0 0 2000 1248.8;" xml:space="preserve">
<style type="text/css">
	.st0{fill:#111827;}
</style>
<path class="st0" d="M623.9,833c0,53.5-12.3,93.1-37,118.9c-24.7,25.7-60.1,38.6-106.3,38.5c-42,0-72.4-8.8-91.3-26.8
	s-31-39.1-36.2-63.8c-4.8-22.1-8.5-44.4-11-66.9c-2.1-29.4-14.9-49-38.6-59s-51.2-15-82.6-15c-42,0-73.2,7.6-93.6,22.8
	c-20.4,15.2-30.6,46.4-30.7,93.6c0,69.3,17.3,128.6,51.9,177.9c34.6,49.3,81.8,86.8,141.7,112.6c59.8,25.7,127,38.6,201.5,38.5
	c69.2,0,132.4-12.1,189.7-36.2c57.2-24.1,102.9-63.5,137-118.1c34.1-54.6,51.1-126.9,51.1-217.2v-98.9H623.9V833z M836.3,63.3
	c-22-12.7-46.7-19-74-18.9H486.9c-26.2,0-45.1,11.3-56.6,33.9c-11.5,22.1-17.4,46.7-17.4,71.6c0,29.4,6.6,54.8,19.7,76.3
	s31.2,32.2,54.3,32.2h137v109.9h245.5V120C869.4,94.8,858.4,75.9,836.3,63.3z"/>
<path class="st0" d="M1549.4,734.1V833c0,54.6-12.6,94.4-37.8,119.6c-25.2,25.2-59.8,37.8-103.9,37.8c-44.1,0-78.4-12.6-103.1-37.8
	c-24.7-25.2-37-65-37-119.6v-98.9h-245.5V833c0,90.2,17,162.6,51.1,217.2c34.1,54.6,80.2,93.9,138.6,118.1
	c58.2,24.1,123.5,36.2,196,36.2c72.5,0,138-12.1,196.8-36.2c58.8-24.1,105.2-63.5,139.2-118.1s51.1-127,51.1-217.2v-98.9H1549.4z
	 M1304.6,296.3c24.6-25.2,59-37.8,103.1-37.8c44.1,0,78.8,12.6,103.9,37.8c17.1,17.1,28.5,41.1,33.9,72h247.6
	c-5-68.5-21.5-125-49.4-169.7c-34.1-54.6-80.5-93.9-139.2-118s-124.3-36.2-196.8-36.2c-72.4,0-137.7,12.1-196,36.2
	s-104.5,63.5-138.6,118c-27.9,44.7-44.3,101.2-49.4,169.7h247.5C1276.7,337.4,1287.8,313.4,1304.6,296.3z"/>
<path class="st0" d="M56.5,710.8c-6.9,0-13.6-1.7-19.6-5.1c-6.1-3.4-9.1-8.4-9.1-15.2V422.3c0-6.8,3-11.8,9.1-15.2
	c6-3.4,12.8-5.1,19.6-5.1h150.4c7,0,12.1,3,15.2,9.1c3.1,5.9,4.7,12.5,4.6,19.2c0,7.9-1.7,14.7-5.1,20.5c-3.4,5.8-8.3,8.7-14.8,8.7
	H93.7v71.4h63.4c6.5,0,11.4,2.6,14.8,7.8c3.4,5.4,5.2,11.6,5.1,18c-0.1,5.9-1.7,11.6-4.6,16.7c-3.1,5.5-8.2,8.2-15.2,8.2H93.7v71.8
	h113.2c6.5,0,11.4,2.9,14.8,8.7s5.1,12.6,5.1,20.5c0,6.7-1.6,13.3-4.6,19.2c-3.1,6.1-8.2,9.1-15.2,9.1L56.5,710.8z"/>
<path class="st0" d="M326.5,710.8c-6.9,0-13.6-1.7-19.6-5.1c-6.1-3.4-9.1-8.4-9.1-15.2V421.8c0-7,3.5-12.1,10.4-15.2
	c14.4-6.2,30.8-6.2,45.2,0c6.9,3.1,10.4,8.2,10.4,15.2v231.5H460c6.5,0,11.3,3,14.4,8.9c6.2,12.4,6.2,27.1,0,39.5
	c-3.1,6.1-7.9,9.1-14.4,9.1H326.5z"/>
<path class="st0" d="M548.2,636c-5.7,0.1-11.1-2.7-14.4-7.4c-3.7-4.9-5.5-11.3-5.5-19.2c0-7.6,1.8-14,5.5-19.2s8.5-7.8,14.4-7.8
	h109.8c5.1,0,9.7,2.6,13.9,7.8s6.3,11.6,6.3,19.2c0,7.9-2.1,14.3-6.3,19.2s-8.9,7.4-13.9,7.4H548.2z"/>
<path class="st0" d="M928.8,713.3c-4.2,0-8.3-0.9-12-2.8c-4-2-7.2-5.4-9.1-9.5l-57.9-112.4H822v101.8c0,6.8-3.5,11.8-10.3,15.2
	c-14.3,6.8-30.9,6.8-45.2,0c-6.9-3.4-10.3-8.4-10.3-15.2V421.8c-0.1-5.2,1.9-10.2,5.5-13.9c3.6-3.9,8.5-5.9,14.8-5.9h87.4
	c19.4,0,37,2.7,52.6,8.2c15.1,5.1,28.2,14.9,37.4,27.9c9.3,13.1,13.9,31.2,13.9,54.3c0,15.8-2.2,29.4-6.5,40.8
	c-4.4,11.4-10.4,20.8-18.2,28.1c-7.6,7.3-16.6,13-26.4,16.9l51.5,93.4c0.8,1.1,1.4,2.4,1.7,3.8c0.3,1.3,0.4,2.5,0.4,3.8
	c0,5.3-2.1,10.7-6.3,16c-4.3,5.4-9.7,9.9-15.8,13.1C942.2,711.5,935.6,713.2,928.8,713.3z M822,538h41.8c11.8,0,21.1-2.9,27.9-8.7
	c6.8-5.8,10.1-16,10.1-30.6c0-14.9-3.4-25.2-10.1-30.8c-6.8-5.6-16.1-8.4-27.9-8.5H822V538z"/>
<path class="st0" d="M1066.1,710.8c-6.4-0.1-12.8-1.3-18.8-3.6c-6.1-2.1-11.8-5.4-16.7-9.7c-4.5-4.1-6.7-8.7-6.8-13.7
	c0.1-1.6,0.4-3.1,0.8-4.7l78.6-257.7c2.2-7.3,7.6-12.8,16-16.5c17.4-7.3,36.9-7.3,54.3,0c8.3,3.7,13.6,9.1,15.8,16.5l79,257.7
	c0.4,1.5,0.7,3.1,0.8,4.7c0,5.1-2.3,9.6-6.8,13.7c-4.8,4.3-10.4,7.6-16.5,9.7c-6.1,2.3-12.5,3.5-19,3.6c-4.7,0.1-9.4-0.8-13.7-2.7
	c-3.9-1.9-6.7-5.4-7.8-9.5l-14.4-52.8H1102l-14.4,52.8c-0.9,4.2-3.7,7.7-7.6,9.5C1075.6,710,1070.9,710.9,1066.1,710.8z M1115.5,595
	h61.7l-30.8-113.2L1115.5,595z"/>
<path class="st0" d="M1336,710.8c-6.7,0-11.6-1.6-14.6-4.9c-3-3.2-4.4-7.4-4.4-12.5c0-7.3,2.4-15.1,7.2-23.2l119.1-210.8h-98
	c-6.2,0-11.1-2.9-14.6-8.7c-3.6-6.1-5.4-13-5.3-20.1c0-6.8,1.5-13.6,4.7-19.6c3.1-6,8.2-9.1,15.2-9.1h163.1c6.5,0,11.3,1.6,14.4,4.9
	c3.1,3.4,4.8,7.9,4.6,12.5c0,6.8-2.4,14.5-7.2,23.2l-119.1,210.8H1516c6.5,0,11.4,3.1,14.8,9.3c6.8,12.1,6.8,26.8,0,38.9
	c-3.4,6.2-8.3,9.3-14.8,9.3L1336,710.8z"/>
<path class="st0" d="M1637.7,710.8c-7.8,0.1-15.6-1.7-22.6-5.1c-6.9-3.4-10.3-8.4-10.3-15.2V421.8c0-7,3.4-12.1,10.3-15.2
	c14.4-6.2,30.8-6.2,45.2,0c6.9,3.1,10.3,8.2,10.3,15.2v268.7c0,6.8-3.4,11.8-10.3,15.2C1653.2,709.1,1645.5,710.9,1637.7,710.8z"/>
<path class="st0" d="M1791.4,710.8c-7.8,0.1-15.6-1.7-22.6-5.1c-6.9-3.4-10.3-8.4-10.3-15.2V422.3c0-7,3.5-12.2,10.3-15.4
	c7.1-3.3,14.8-4.9,22.6-4.9c6.6-0.1,13.2,0.5,19.7,1.9c5.5,1.5,10.5,4.5,14.4,8.7c4.4,4.5,9.2,12,14.6,22.4l68.4,130.5V421.8
	c0-7,3.5-12.1,10.4-15.2c14.4-6.2,30.8-6.2,45.2,0c6.9,3.1,10.4,8.2,10.4,15.2v268.7c0,6.8-3.5,11.8-10.4,15.2
	c-7,3.4-14.8,5.1-22.6,5.1c-7.2,0.1-14.3-1.1-21.1-3.4c-6.5-2.2-11.7-7-15.6-14.4l-80.2-146.2v143.6c0,6.8-3.5,11.8-10.4,15.2
	C1807,709.1,1799.2,710.9,1791.4,710.8z"/>
</svg>
